# xmcd
#
# Track frame offsets: 
#        150
#        16960
#        36522
#        54402
#        73793
#        96130
#        113037
#        130913
#        142091
#        160374
#        175908
#
# Disc length: 2493 seconds
#
# Revision: 0
# Processed by: cddbd v1.5.2PL0 Copyright (c) Steve Scherf et al.
# Submitted via: ExactAudioCopyFreeDBPlugin 1.0
#
DISCID=9c09bb0b
DTITLE=Curren$y - Canal Street Confidential
DYEAR=2015
DGENRE=Hip-Hop
TTITLE0=Drive By (feat. Future)
TTITLE1=Everywhere
TTITLE2=How High (feat. Lloyd)
TTITLE3=Speed
TTITLE4=What's Up (feat. K Camp)
TTITLE5=Winning (feat. Wiz Khalifa)
TTITLE6=Bottom of the Bottle (feat. August Alsina and Lil Wayne)
TTITLE7=Cruzin...
TTITLE8=Superstar (feat. Ty Dolla $ign)
TTITLE9=Boulders
TTITLE10=All Wit My Hands
EXTD=
EXTT0=
EXTT1=
EXTT2=
EXTT3=
EXTT4=
EXTT5=
EXTT6=
EXTT7=
EXTT8=
EXTT9=
EXTT10=
PLAYORDER=
